<svg xmlns="http://www.w3.org/2000/svg" viewBox="0 0 32 32">
  <rect width="32" height="32" rx="4" fill="#1a1a2e"/>
  <rect x="2" y="18" width="6" height="6" rx="1" fill="#00ffff"/>
  <rect x="8" y="18" width="6" height="6" rx="1" fill="#00ffff"/>
  <rect x="14" y="18" width="6" height="6" rx="1" fill="#00ffff"/>
  <rect x="20" y="18" width="6" height="6" rx="1" fill="#00ffff"/>
  <rect x="8" y="12" width="6" height="6" rx="1" fill="#800080"/>
  <rect x="14" y="12" width="6" height="6" rx="1" fill="#800080"/>
  <rect x="20" y="12" width="6" height="6" rx="1" fill="#800080"/>
  <rect x="14" y="6" width="6" height="6" rx="1" fill="#ffff00"/>
  <rect x="20" y="6" width="6" height="6" rx="1" fill="#ffff00"/>
  <rect x="2" y="24" width="6" height="6" rx="1" fill="#00ff00"/>
  <rect x="8" y="24" width="6" height="6" rx="1" fill="#ff0000"/>
  <rect x="14" y="24" width="6" height="6" rx="1" fill="#0000ff"/>
  <rect x="20" y="24" width="6" height="6" rx="1" fill="#ffa500"/>
</svg>
